<svg width="78" height="55" viewBox="0 0 78 55" fill="none" xmlns="http://www.w3.org/2000/svg">
<path d="M39.4375 41.2447L30.2266 33.1851V45.0277L39.4375 53.9098L48.6485 45.0277V33.1851L39.4375 41.2447Z" fill="#B388FE"/>
<path d="M48.6485 33.1851L39.4375 41.2447V53.9098L48.6485 45.3562V33.1851Z" fill="#6E39CB"/>
<path d="M15.259 12.4605V51.9049C15.259 53.0543 14.4014 54.0614 13.2534 54.004C-5.33393 53.0754 -3.19912 0.371094 12.3806 0.371094H67.0728C67.4495 0.371094 67.8306 0.466563 68.159 0.651158C84.9321 10.0799 77.6484 32.3124 65.7141 34.216C64.5383 34.4035 63.5733 33.4262 63.5167 32.2369L62.5698 12.351C62.5113 11.1232 61.4988 10.1578 60.2696 10.1578H55.3595C54.7488 10.1578 54.1631 10.4004 53.7313 10.8322L41.0357 23.5278C40.1484 24.4151 38.714 24.4286 37.8102 23.5582L24.5631 10.8018C24.134 10.3886 23.5615 10.1578 22.9658 10.1578H17.5618C16.29 10.1578 15.259 11.1887 15.259 12.4605Z" fill="#6E39CB"/>
</svg>
